<svg xmlns="http://www.w3.org/2000/svg" xmlns:xlink="http://www.w3.org/1999/xlink" width="158" height="64" viewBox="0 0 158 64">
    <defs>
        <path id="a" d="M0 .22h62.961v62.868H0z"/>
        <path id="c" d="M0 63.506h157.315V.637H0z"/>
    </defs>
    <g fill="none" fill-rule="evenodd">
        <g transform="translate(0 .418)">
            <mask id="b" fill="#fff">
                <use xlink:href="#a"/>
            </mask>
            <path fill="#A5CD38" d="M9.409.22h44.055c5.188 0 9.497 4.226 9.497 9.333v44.114c0 5.195-4.309 9.421-9.497 9.421H9.41c-5.188 0-9.41-4.226-9.41-9.421V9.553C0 4.446 4.222.219 9.41.219" mask="url(#b)"/>
        </g>
        <path fill="#EC1D24" d="M79.58 24.5c-.702 1.144-1.67 1.672-2.989 1.672-.967 0-1.758-.264-2.374-.792-.704-.528-1.231-1.321-1.495-2.201-.352-.88-.528-1.762-.528-2.818 0-.969.176-1.85.528-2.818a4.077 4.077 0 0 1 1.495-2.113c.616-.529 1.407-.792 2.374-.792.88 0 1.583.263 2.198.792.616.528 1.056 1.233 1.407 2.025.264.969.44 1.937.44 2.994 0 1.585-.352 2.994-1.055 4.05m5.188-8.717c-.528-1.409-1.407-2.553-2.55-3.522-1.143-.88-2.55-1.321-4.133-1.321a7.574 7.574 0 0 0-3.165.705c-1.056.44-1.847 1.056-2.375 1.937h-.088V2.222h-4.836v27.56s4.397.529 4.572-2.377v-.352l.088.175c.088.177.264.44.528.793.352.44.967.793 1.846 1.233.88.44 2.023.617 3.43.617 1.583 0 2.99-.44 4.133-1.321 1.143-.881 2.022-2.114 2.55-3.523.616-1.496.88-2.993.88-4.578 0-1.585-.264-3.17-.88-4.667"/>
        <mask id="d" fill="#fff">
            <use xlink:href="#c"/>
        </mask>
        <path fill="#EC1D24" d="M86.967 29.87h4.837V11.468h-4.837V29.87zm0-23.598h4.837v-4.05h-4.836v4.05zM105.961 22.034c-.175.616-.352 1.144-.703 1.585a3.9 3.9 0 0 1-1.32 1.056c-.527.353-1.143.44-1.846.44a4.076 4.076 0 0 1-1.846-.44c-.528-.352-.88-.793-1.232-1.32-.263-.441-.527-1.057-.615-1.674-.176-.616-.176-1.32-.176-1.937 0-.704.088-1.32.176-1.936.176-.617.44-1.146.704-1.586.351-.528.79-.88 1.23-1.144.528-.264 1.144-.44 1.759-.44.792 0 1.496.176 2.023.44.528.352.967.704 1.231 1.233.351.528.527 1.144.703 1.76.088.617.176 1.321.176 2.113a6.72 6.72 0 0 1-.264 1.85m.264-8.189h-.088a4.832 4.832 0 0 0-2.198-2.201 6.506 6.506 0 0 0-2.99-.705c-1.231 0-2.374.264-3.253.705-.968.528-1.76 1.144-2.375 2.025-.703.792-1.143 1.76-1.495 2.817-.351 1.057-.44 2.202-.44 3.347 0 1.232.089 2.377.353 3.433.352 1.145.79 2.113 1.407 2.906.615.793 1.406 1.497 2.374 1.937.879.44 2.022.705 3.34.705 1.056 0 2.112-.176 3.079-.617.967-.528 1.758-1.232 2.198-2.113h.088v2.29c.088 1.32-.264 2.377-.879 3.17-.616.88-1.583 1.232-2.99 1.232-.88 0-1.583-.176-2.286-.528a2.702 2.702 0 0 1-1.32-1.85h-4.836c.088.969.352 1.85.88 2.554a5.086 5.086 0 0 0 1.847 1.761c.703.529 1.494.88 2.462 1.057.879.264 1.758.352 2.637.352 2.023 0 3.606-.264 4.837-.88 1.143-.529 2.11-1.233 2.726-2.026.615-.792 1.055-1.585 1.23-2.553.265-.88.353-1.762.353-2.466v-16.73h-.616c-3.87.088-4.045 2.378-4.045 2.378" mask="url(#d)"/>
        <path fill="#231F20" d="M157.315 46.16v-.353c-.263-2.113-2.902-2.113-2.902-2.113v-9.51h-2.99v9.51h-2.462v2.466h2.462v11.975c0 2.113.616 3.874 3.606 3.874.352 0 1.231-.176 2.286-.264v-2.377h-1.055c-.615 0-1.847 0-1.847-1.41V46.16h2.902zM132.166 44.751c-1.671-1.761-3.693-.176-4.045.176l-6.771 6.604V34.185h-2.902v27.824h2.902v-6.868l2.55-2.289 5.628 9.157h3.869l-7.298-11.359 6.067-5.899zM111.501 51.267l-2.99-.793c-2.374-.616-3.34-.968-3.34-2.377 0-2.29 2.725-2.553 3.605-2.553 2.022 0 3.077.44 3.605 1.144 0 0 1.67 1.937 3.605 1.32-.176-1.496-1.319-5.106-6.859-5.106-3.605 0-6.86 1.761-6.86 5.723 0 2.466 1.672 3.786 4.222 4.403l3.517.88c2.55.617 3.518 1.145 3.518 2.554 0 2.025-1.934 2.906-4.133 2.906-4.22 0-4.661-2.29-4.748-3.698h-2.99c.176 2.2.703 6.34 7.826 6.34 4.045 0 7.122-2.29 7.122-5.988 0-2.466-1.319-3.874-5.1-4.755" mask="url(#d)"/>
        <path fill="#231F20" d="M140.608 45.632c3.693 0 4.836 2.553 5.012 5.371h-7.739c-1.142.088-1.846.616-2.285 1.144v-1.144c0-2.818 2.198-5.371 5.012-5.371m.263 13.736c-3.517 0-5.275-2.202-5.275-5.988h13.19c0-6.34-2.55-10.478-7.74-10.478-5.978 0-8.704 4.402-8.704 10.038 0 5.195 2.99 9.069 8.09 9.069 2.902 0 4.045-.704 4.924-1.32 2.287-1.497 3.078-4.05 3.166-4.931h-2.99c-.176 1.408-1.847 3.61-4.66 3.61M96.376 55.23c0 2.377-2.813 4.226-5.627 4.226-2.286 0-3.254-1.145-3.254-3.17 0-2.29 2.374-2.73 3.87-2.906 3.78-.528 4.484-.793 5.011-1.145v2.994zm4.045 4.138c-.615 0-1.055-.264-1.055-1.057v-10.39c0-4.667-5.188-5.019-6.683-5.019-4.396 0-7.21 1.673-7.386 5.811 1.67.264 2.726-.705 3.166-1.409.087-.176.175-.351.35-.528.528-.792 1.496-1.409 3.343-1.409 2.902 0 4.309 1.057 4.309 2.995 0 1.76-.88 2.024-1.584 2.113l-5.012.616c-5.1.616-5.54 4.138-5.54 5.635 0 3.17 2.375 5.283 5.716 5.283 3.518 0 5.277-1.673 6.507-2.994.088 1.41.527 2.818 3.166 2.818.703 0 1.143-.264 1.67-.352V59.28c-.351 0-.703.088-.967.088zM75.448 59.368c-1.935 0-4.924-1.321-4.924-6.076 0-2.994.527-7.66 4.836-7.66 4.748 0 5.012 4.402 5.012 6.78 0 3.962-1.583 6.956-4.924 6.956m.528-16.466c-2.11 0-3.958.88-5.188 2.818h-.089V34.185h-3.077V61.48h1.143c1.582-.088 1.759-1.497 1.759-1.76v-.53h.087c.616 1.057 1.847 2.818 4.925 2.818 6.156 0 7.914-5.811 7.914-10.126 0-5.107-2.726-8.98-7.474-8.98M32.924 8.518h-5.012v13.558c1.79-.022 3.48.555 5.012 1.529V8.518z" mask="url(#d)"/>
        <path fill="#EC1D24" d="M29.23 46.556c-1.142 1.937-2.813 2.817-5.1 2.817-1.582 0-2.901-.44-4.044-1.32a8.484 8.484 0 0 1-2.55-3.698c-.529-1.497-.88-3.082-.88-4.755s.351-3.346.88-4.843c.527-1.497 1.406-2.73 2.55-3.61 1.143-.968 2.462-1.409 4.044-1.409 1.495 0 2.814.44 3.87 1.321.967.88 1.758 2.113 2.286 3.61.44 1.497.704 3.082.704 4.93 0 2.819-.616 5.108-1.76 6.957m8.882-14.793c-.967-2.465-2.462-4.49-4.397-5.987-1.934-1.497-4.22-2.29-6.946-2.29-1.935 0-3.782.353-5.452 1.145-1.672.792-3.078 1.937-4.045 3.434h-.088V8.518H8.918v47.02s7.562.88 7.826-3.963V50.782l.088.353c.175.352.44.792.88 1.409.615.704 1.582 1.408 3.077 2.113 1.583.704 3.517.968 5.98.968 2.726 0 5.012-.704 6.946-2.2 1.935-1.586 3.43-3.523 4.397-5.988.968-2.554 1.495-5.196 1.495-7.837 0-2.73-.527-5.283-1.495-7.837" mask="url(#d)"/>
        <path fill="#231F20" d="M52.549 31.763c-2.67-6.804-10.165-10.277-16.796-7.132-.299.142-.589.295-.87.46a16.743 16.743 0 0 1 2.666 3.061c.82-.289 1.708-.426 2.678-.426 6.372 0 8.264 6.735 8.264 11.883 0 5.202-2.02 11.777-8.264 11.777-1.056 0-2.013-.163-2.892-.488a16.44 16.44 0 0 1-3.06 3.272c.29.162.606.324.95.487 1.583.704 3.517.968 5.98.968 2.726 0 5.012-.704 6.947-2.2 1.934-1.586 3.43-3.523 4.397-5.988.967-2.554 1.494-5.196 1.494-7.837 0-2.73-.527-5.283-1.494-7.837" mask="url(#d)"/>
    </g>
</svg>
